<svg id="Layer_1" data-name="Layer 1" xmlns="http://www.w3.org/2000/svg" width="20" height="20" viewBox="0 0 20 20"><defs><style>.cls-1{fill:#ff3456;}</style></defs><title>icon-facebook</title><path class="cls-1" d="M292.54,364.87h-14.6a2.7,2.7,0,0,0-2.7,2.7v14.6a2.7,2.7,0,0,0,2.7,2.7h14.6a2.7,2.7,0,0,0,2.7-2.7v-14.6A2.7,2.7,0,0,0,292.54,364.87Zm-3.56,4.7h-1.56a0.92,0.92,0,0,0-.94.94v1.56H289l-0.31,2.81h-2.18v7.8h-3.43v-7.8h-1.56v-2.81h1.56V370.5s-0.28-3,2.5-3.43H289v2.5Z" transform="translate(-275.24 -364.87)"/></svg>