<svg id="Layer_1" data-name="Layer 1" xmlns="http://www.w3.org/2000/svg" width="151.68" height="30" viewBox="0 0 151.68 30"><defs><style>.cls-1{fill:#fff;}</style></defs><title>powered-by-transient-grammar</title><path class="cls-1" d="M201,459.29h-2.7v2.95h-1.21v2.39h1.21v3.94a2.21,2.21,0,0,0,.67,1.74,3,3,0,0,0,2.05.6,5.33,5.33,0,0,0,.78-0.05l0.89-.16v-2.29a3.1,3.1,0,0,1-.91.12,0.77,0.77,0,0,1-.62-0.21,1.16,1.16,0,0,1-.17-0.72v-3h2v-2.39h-2v-2.95Z" transform="translate(-116.78 -458.65)"/><path class="cls-1" d="M207.77,465.2a3.94,3.94,0,0,1,2.3-.82h0.34v-2.3h-0.34a3.08,3.08,0,0,0-1.19.23,4.32,4.32,0,0,0-1.11.7v-0.75h-2.6v8.46h2.6V465.2Z" transform="translate(-116.78 -458.65)"/><path class="cls-1" d="M213.89,470.91a3,3,0,0,0,1.12-.2,3.44,3.44,0,0,0,1-.68v0.69h2.6v-5a5.24,5.24,0,0,0-.28-1.87,2.25,2.25,0,0,0-1.14-1.17,5.64,5.64,0,0,0-2.5-.44h-1.93v2.24h1.7a2.75,2.75,0,0,1,1,.13,0.77,0.77,0,0,1,.45.38,1.79,1.79,0,0,1,.13.67,4.42,4.42,0,0,0-2.08-.45,3.37,3.37,0,0,0-2.31.73,2.64,2.64,0,0,0-.83,2.09,2.72,2.72,0,0,0,.81,2.1A3.18,3.18,0,0,0,213.89,470.91Zm-0.13-3.59a1.34,1.34,0,0,1,.84-0.23,3.33,3.33,0,0,1,1.45.34v0.79a2.57,2.57,0,0,1-1.6.69,1.19,1.19,0,0,1-.73-0.19,0.82,0.82,0,0,1-.25-0.69A0.84,0.84,0,0,1,213.75,467.31Z" transform="translate(-116.78 -458.65)"/><path class="cls-1" d="M223.37,465.09a2.9,2.9,0,0,1,1.78-.72,1.39,1.39,0,0,1,1,.32,1.3,1.3,0,0,1,.31.93v5.08h2.6v-5.08a3.74,3.74,0,0,0-.84-2.71,3.4,3.4,0,0,0-2.53-.85,3.58,3.58,0,0,0-1.23.21,4.12,4.12,0,0,0-1.13.64v-0.67h-2.6v8.46h2.6v-5.62Z" transform="translate(-116.78 -458.65)"/><path class="cls-1" d="M234.14,471a4.34,4.34,0,0,0,2.63-.72,2.52,2.52,0,0,0,1-2.17,2.55,2.55,0,0,0-.58-1.82,3.56,3.56,0,0,0-1.9-.88l-1.45-.3a1.18,1.18,0,0,1-.4-0.14,0.31,0.31,0,0,1-.12-0.28,0.39,0.39,0,0,1,.24-0.37,2.1,2.1,0,0,1,.85-0.12,8,8,0,0,1,1.59.16,6.06,6.06,0,0,1,1.38.43v-2.21a12,12,0,0,0-1.55-.39,8.67,8.67,0,0,0-1.56-.15,4.35,4.35,0,0,0-2.7.7,2.54,2.54,0,0,0-.89,2.13,2.33,2.33,0,0,0,.58,1.67,3.43,3.43,0,0,0,1.85.87l1.45,0.3a1,1,0,0,1,.43.19,0.46,0.46,0,0,1,.13.36q0,0.58-1,.58a7.87,7.87,0,0,1-1.85-.21,6.73,6.73,0,0,1-1.72-.69v2.29a7.65,7.65,0,0,0,1.7.59A9.16,9.16,0,0,0,234.14,471Z" transform="translate(-116.78 -458.65)"/><rect class="cls-1" x="122.82" y="3.6" width="2.6" height="8.46"/><rect class="cls-1" x="122.82" width="2.6" height="2.26"/><path class="cls-1" d="M247.71,462a4.32,4.32,0,0,0-2.11.52,3.74,3.74,0,0,0-1.49,1.52,5.5,5.5,0,0,0,0,4.78,3.76,3.76,0,0,0,1.58,1.58,5.24,5.24,0,0,0,2.52.56,8.4,8.4,0,0,0,1.82-.17,5.76,5.76,0,0,0,1.54-.61l-0.67-2a6.61,6.61,0,0,1-1.22.49,4.29,4.29,0,0,1-1.11.14,2.43,2.43,0,0,1-1.52-.4,1.91,1.91,0,0,1-.68-1.12h5.35v-1a4.34,4.34,0,0,0-1.06-3.16A3.91,3.91,0,0,0,247.71,462Zm-1.35,3.35a1.54,1.54,0,0,1,.47-0.93,1.36,1.36,0,0,1,.87-0.27,1.26,1.26,0,0,1,.89.28,1.38,1.38,0,0,1,.37.91h-2.6Z" transform="translate(-116.78 -458.65)"/><path class="cls-1" d="M255.94,465.09a2.9,2.9,0,0,1,1.78-.72,1.39,1.39,0,0,1,1,.32,1.3,1.3,0,0,1,.31.93v5.08h2.6v-5.08a3.75,3.75,0,0,0-.84-2.71,3.4,3.4,0,0,0-2.53-.85,3.58,3.58,0,0,0-1.23.21,4.12,4.12,0,0,0-1.13.64v-0.67h-2.6v8.46h2.6v-5.62Z" transform="translate(-116.78 -458.65)"/><path class="cls-1" d="M266.54,462.55v-2.84h-2.6v2.84h-1.17v2.3h1.17v3.8a2.13,2.13,0,0,0,.65,1.67,2.89,2.89,0,0,0,2,.58,5.15,5.15,0,0,0,.75-0.05l0.86-.16v-2.21a3,3,0,0,1-.88.12,0.74,0.74,0,0,1-.6-0.2,1.12,1.12,0,0,1-.16-0.7v-2.86h1.91v-2.3h-1.91Z" transform="translate(-116.78 -458.65)"/><path class="cls-1" d="M200.27,474.09a3.86,3.86,0,0,0-2.38-.85,4.27,4.27,0,0,0-2.11.51,3.55,3.55,0,0,0-1.44,1.53,5.39,5.39,0,0,0-.52,2.49,4.69,4.69,0,0,0,1.1,3.44,4,4,0,0,0,3,1.1,3.86,3.86,0,0,0,2.38-.85v0.7a1.54,1.54,0,0,1-.54,1.27,2.72,2.72,0,0,1-1.72.44,8.47,8.47,0,0,1-1.52-.16,8.34,8.34,0,0,1-1.68-.5v2.51a8.24,8.24,0,0,0,1.82.44,17.67,17.67,0,0,0,2.24.13,4.54,4.54,0,0,0,2.23-.52,3.45,3.45,0,0,0,1.41-1.42,4.26,4.26,0,0,0,.48-2v-8.84h-2.73v0.6Zm0,5.17a3,3,0,0,1-1.79.64,1.81,1.81,0,0,1-1.39-.48,2.41,2.41,0,0,1-.45-1.65,2.36,2.36,0,0,1,.46-1.57,1.7,1.7,0,0,1,1.37-.54,3,3,0,0,1,1.79.64v3Z" transform="translate(-116.78 -458.65)"/><path class="cls-1" d="M209.06,473.55a4.53,4.53,0,0,0-1.17.73v-0.78h-2.73v8.87h2.73v-5.78a4.13,4.13,0,0,1,2.41-.86h0.36V473.3H210.3A3.23,3.23,0,0,0,209.06,473.55Z" transform="translate(-116.78 -458.65)"/><path class="cls-1" d="M219,482.36v-5.22a5.48,5.48,0,0,0-.3-2,2.36,2.36,0,0,0-1.2-1.23,5.91,5.91,0,0,0-2.62-.46h-2v2.35h1.79a2.89,2.89,0,0,1,1,.14,0.81,0.81,0,0,1,.47.4,1.88,1.88,0,0,1,.13.7,4.63,4.63,0,0,0-2.18-.47,3.53,3.53,0,0,0-2.42.77,2.77,2.77,0,0,0-.87,2.19,2.85,2.85,0,0,0,.85,2.2,3.33,3.33,0,0,0,2.36.79,3.16,3.16,0,0,0,1.18-.21,3.61,3.61,0,0,0,1.08-.71v0.72H219Zm-4.4-1.9a1.24,1.24,0,0,1-.77-0.2,0.86,0.86,0,0,1-.27-0.72,0.88,0.88,0,0,1,.31-0.74,1.4,1.4,0,0,1,.88-0.24,3.48,3.48,0,0,1,1.52.36v0.83A2.69,2.69,0,0,1,214.62,480.46Z" transform="translate(-116.78 -458.65)"/><path class="cls-1" d="M231.5,473.3a3.33,3.33,0,0,0-1.46.32,5.32,5.32,0,0,0-1.37,1,3,3,0,0,0-2.85-1.33,3.39,3.39,0,0,0-1.21.21,3.94,3.94,0,0,0-1.1.67v-0.69h-2.73v8.87h2.73v-5.92a2.72,2.72,0,0,1,1.71-.72,1.21,1.21,0,0,1,1,.34,1.49,1.49,0,0,1,.28,1v5.33h2.73V477q0-.39,0-0.56a2.68,2.68,0,0,1,1.72-.75,1.21,1.21,0,0,1,1,.34,1.49,1.49,0,0,1,.28,1v5.33h2.73V477a4,4,0,0,0-.84-2.84A3.31,3.31,0,0,0,231.5,473.3Z" transform="translate(-116.78 -458.65)"/><path class="cls-1" d="M247.65,473.3a3.33,3.33,0,0,0-1.46.32,5.31,5.31,0,0,0-1.37,1A3,3,0,0,0,242,473.3a3.39,3.39,0,0,0-1.21.21,3.94,3.94,0,0,0-1.1.67v-0.69h-2.73v8.87h2.73v-5.92a2.72,2.72,0,0,1,1.71-.72,1.21,1.21,0,0,1,1,.34,1.49,1.49,0,0,1,.28,1v5.33h2.73V477q0-.39,0-0.56a2.68,2.68,0,0,1,1.72-.75,1.21,1.21,0,0,1,1,.34,1.49,1.49,0,0,1,.28,1v5.33H251V477a4,4,0,0,0-.84-2.84A3.31,3.31,0,0,0,247.65,473.3Z" transform="translate(-116.78 -458.65)"/><path class="cls-1" d="M258.05,482.36h2.73v-5.22a5.48,5.48,0,0,0-.3-2,2.36,2.36,0,0,0-1.2-1.23,5.91,5.91,0,0,0-2.62-.46h-2v2.35h1.79a2.89,2.89,0,0,1,1,.14,0.81,0.81,0,0,1,.47.4,1.89,1.89,0,0,1,.13.7,4.63,4.63,0,0,0-2.18-.47,3.53,3.53,0,0,0-2.42.77,2.77,2.77,0,0,0-.87,2.19,2.85,2.85,0,0,0,.85,2.2,3.33,3.33,0,0,0,2.36.79,3.16,3.16,0,0,0,1.17-.21,3.61,3.61,0,0,0,1.08-.71v0.72Zm-1.68-1.9a1.24,1.24,0,0,1-.77-0.2,0.85,0.85,0,0,1-.27-0.72,0.88,0.88,0,0,1,.31-0.74,1.4,1.4,0,0,1,.88-0.24,3.48,3.48,0,0,1,1.52.36v0.83A2.69,2.69,0,0,1,256.38,480.46Z" transform="translate(-116.78 -458.65)"/><path class="cls-1" d="M266.85,473.55a4.53,4.53,0,0,0-1.17.73v-0.78H263v8.87h2.73v-5.78a4.13,4.13,0,0,1,2.41-.86h0.36V473.3H268.1A3.23,3.23,0,0,0,266.85,473.55Z" transform="translate(-116.78 -458.65)"/><path class="cls-1" d="M221.25,488.31a2,2,0,0,1-.55.08,1.45,1.45,0,0,1-.81-0.22,1.37,1.37,0,0,1-.51-0.61,2.19,2.19,0,0,1-.17-0.9,2.05,2.05,0,0,1,.18-0.87,1.39,1.39,0,0,1,.51-0.6,1.44,1.44,0,0,1,.8-0.22,2,2,0,0,1,.92.2V484.9a2.47,2.47,0,0,0-.45-0.14,2.37,2.37,0,0,0-.47,0,1.79,1.79,0,0,0-1,.26,1.57,1.57,0,0,0-.59.7,2.71,2.71,0,0,0,0,2,1.54,1.54,0,0,0,.6.69,1.82,1.82,0,0,0,1,.25,2.59,2.59,0,0,0,.61-0.08,2.7,2.7,0,0,0,.61-0.23l-0.1-.25A3.87,3.87,0,0,1,221.25,488.31Z" transform="translate(-116.78 -458.65)"/><path class="cls-1" d="M225.11,485a1.85,1.85,0,0,0-1.9,0,1.63,1.63,0,0,0-.59.71,2.43,2.43,0,0,0-.2,1,2.51,2.51,0,0,0,.19,1,1.57,1.57,0,0,0,.59.7,1.7,1.7,0,0,0,1,.26,1.68,1.68,0,0,0,.95-0.26,1.59,1.59,0,0,0,.59-0.7,2.48,2.48,0,0,0,.2-1,2.44,2.44,0,0,0-.2-1A1.62,1.62,0,0,0,225.11,485Zm0.33,2.57a1.42,1.42,0,0,1-.5.62,1.32,1.32,0,0,1-.78.23,1.35,1.35,0,0,1-.79-0.22,1.39,1.39,0,0,1-.49-0.61,2.19,2.19,0,0,1-.17-0.87,2.16,2.16,0,0,1,.17-0.86,1.41,1.41,0,0,1,.49-0.62,1.34,1.34,0,0,1,.79-0.23,1.32,1.32,0,0,1,.77.23,1.45,1.45,0,0,1,.5.61,2.06,2.06,0,0,1,.17.85A2.2,2.2,0,0,1,225.44,487.54Z" transform="translate(-116.78 -458.65)"/><polygon class="cls-1" points="111.71 28.03 110.33 26.14 110.05 26.14 110.05 29.91 110.33 29.91 110.33 26.61 111.63 28.39 111.79 28.39 113.09 26.61 113.09 29.91 113.37 29.91 113.37 26.14 113.09 26.14 111.71 28.03"/><polygon class="cls-1" points="116.22 28.03 114.84 26.14 114.56 26.14 114.56 29.91 114.84 29.91 114.84 26.61 116.14 28.39 116.3 28.39 117.61 26.61 117.61 29.91 117.88 29.91 117.88 26.14 117.61 26.14 116.22 28.03"/><path class="cls-1" d="M238.23,487.33a1.08,1.08,0,0,1-.27.79,1.29,1.29,0,0,1-1.58,0,1.08,1.08,0,0,1-.27-0.79v-2.54h-0.28v2.54a1.34,1.34,0,1,0,2.67,0v-2.54h-0.28v2.54Z" transform="translate(-116.78 -458.65)"/><polygon class="cls-1" points="125.29 29.4 123.17 26.14 122.9 26.14 122.9 29.91 123.18 29.91 123.18 26.65 125.29 29.91 125.57 29.91 125.57 26.14 125.29 26.14 125.29 29.4"/><rect class="cls-1" x="126.76" y="26.14" width="0.28" height="3.78"/><polygon class="cls-1" points="127.84 26.41 129.03 26.41 129.03 29.91 129.31 29.91 129.31 26.41 130.5 26.41 130.5 26.14 127.84 26.14 127.84 26.41"/><polygon class="cls-1" points="132.45 28.21 131.18 26.14 130.88 26.14 132.31 28.46 132.31 29.91 132.59 29.91 132.59 28.46 134.03 26.14 133.73 26.14 132.45 28.21"/><polygon class="cls-1" points="137.56 28.03 136.18 26.14 135.9 26.14 135.9 29.91 136.18 29.91 136.18 26.61 137.48 28.39 137.64 28.39 138.94 26.61 138.94 29.91 139.22 29.91 139.22 26.14 138.94 26.14 137.56 28.03"/><polygon class="cls-1" points="140.7 28.15 142.36 28.15 142.36 27.88 140.7 27.88 140.7 26.41 142.61 26.41 142.61 26.14 140.42 26.14 140.42 29.91 142.63 29.91 142.63 29.65 140.7 29.65 140.7 28.15"/><path class="cls-1" d="M261.53,484.79h-1.22v3.78h1.22a1.75,1.75,0,0,0,1.33-.47,2.45,2.45,0,0,0,0-2.82A1.73,1.73,0,0,0,261.53,484.79Zm1.11,3.13a1.47,1.47,0,0,1-1.11.39h-0.94V485h0.94a1.47,1.47,0,0,1,1.11.39,1.72,1.72,0,0,1,.38,1.23A1.76,1.76,0,0,1,262.65,487.91Z" transform="translate(-116.78 -458.65)"/><rect class="cls-1" x="147.49" y="26.14" width="0.28" height="3.78"/><path class="cls-1" d="M266.74,484.74l-1.47,3.82h0.3l0.49-1.27h1.61l0.49,1.27h0.3L267,484.74h-0.24ZM266.16,487l0.7-1.82,0.7,1.82h-1.41Z" transform="translate(-116.78 -458.65)"/><path class="cls-1" d="M119.18,468.37h-2.4v7.44h0.55v-3.28h1.85a2.34,2.34,0,0,0,1.67-.53,2,2,0,0,0,.55-1.54Q121.41,468.37,119.18,468.37Zm0,3.65h-1.85v-3.14h1.85a1.81,1.81,0,0,1,1.24.37,1.5,1.5,0,0,1,.42,1.18A1.44,1.44,0,0,1,119.18,472Z" transform="translate(-116.78 -458.65)"/><path class="cls-1" d="M127.83,468.75a3.64,3.64,0,0,0-3.73,0,3.2,3.2,0,0,0-1.15,1.39,4.78,4.78,0,0,0-.39,2,4.92,4.92,0,0,0,.38,2,3.08,3.08,0,0,0,1.15,1.38A3.35,3.35,0,0,0,126,476a3.31,3.31,0,0,0,1.86-.51,3.13,3.13,0,0,0,1.15-1.38,4.87,4.87,0,0,0,.39-2,4.79,4.79,0,0,0-.39-2A3.19,3.19,0,0,0,127.83,468.75Zm0.64,5a2.8,2.8,0,0,1-1,1.22,2.6,2.6,0,0,1-1.53.45,2.65,2.65,0,0,1-1.55-.44,2.74,2.74,0,0,1-1-1.21,4.3,4.3,0,0,1-.33-1.72,4.25,4.25,0,0,1,.33-1.7,2.77,2.77,0,0,1,1-1.21,2.64,2.64,0,0,1,1.55-.45,2.59,2.59,0,0,1,1.52.45,2.85,2.85,0,0,1,1,1.2,4.07,4.07,0,0,1,.34,1.68A4.33,4.33,0,0,1,128.48,473.8Z" transform="translate(-116.78 -458.65)"/><polygon class="cls-1" points="20.66 16.28 18.7 9.72 18.11 9.72 16.15 16.28 14.19 9.72 13.6 9.72 15.92 17.25 16.39 17.25 18.4 10.68 20.42 17.25 20.89 17.25 23.2 9.72 22.61 9.72 20.66 16.28"/><polygon class="cls-1" points="25.27 13.69 28.54 13.69 28.54 13.16 25.27 13.16 25.27 10.26 29.03 10.26 29.03 9.72 24.72 9.72 24.72 17.16 29.08 17.16 29.08 16.63 25.27 16.63 25.27 13.69"/><path class="cls-1" d="M152.26,470.42q0-2-2.23-2h-2.4v7.44h0.55v-3.38h1.74l2.09,3.38h0.65l-2.11-3.41A1.79,1.79,0,0,0,152.26,470.42Zm-4.08,1.51v-3H150a1.85,1.85,0,0,1,1.24.36,1.43,1.43,0,0,1,.42,1.14,1.42,1.42,0,0,1-1.66,1.54h-1.85Z" transform="translate(-116.78 -458.65)"/><polygon class="cls-1" points="38.16 13.69 41.42 13.69 41.42 13.16 38.16 13.16 38.16 10.26 41.91 10.26 41.91 9.72 37.61 9.72 37.61 17.16 41.96 17.16 41.96 16.63 38.16 16.63 38.16 13.69"/><path class="cls-1" d="M162.91,468.37h-2.4v7.44h2.4a3.44,3.44,0,0,0,2.63-.93,4.83,4.83,0,0,0,0-5.56A3.41,3.41,0,0,0,162.91,468.37Zm2.19,6.15a2.89,2.89,0,0,1-2.19.78h-1.85v-6.42h1.85a2.9,2.9,0,0,1,2.19.77,3.38,3.38,0,0,1,.75,2.41A3.45,3.45,0,0,1,165.11,474.53Z" transform="translate(-116.78 -458.65)"/><path class="cls-1" d="M174,472a1.68,1.68,0,0,0,1-1.67,2,2,0,0,0-.5-1.51,2.47,2.47,0,0,0-1.73-.48h-2.31v7.44h2.31a3,3,0,0,0,1.94-.49,1.85,1.85,0,0,0,.58-1.49A1.75,1.75,0,0,0,174,472Zm-3-3.15h1.76a2.7,2.7,0,0,1,1,.15,0.94,0.94,0,0,1,.52.46,1.93,1.93,0,0,1,.15.84,1.44,1.44,0,0,1-.41,1.13,1.83,1.83,0,0,1-1.25.37H171v-2.94Zm3.27,6.06a2.44,2.44,0,0,1-1.51.36H171v-3h1.76a2.5,2.5,0,0,1,1.46.35,1.28,1.28,0,0,1,.49,1.12A1.38,1.38,0,0,1,174.28,474.94Z" transform="translate(-116.78 -458.65)"/><polygon class="cls-1" points="62.72 13.82 60.21 9.72 59.62 9.72 62.45 14.3 62.45 17.16 62.99 17.16 62.99 14.3 65.83 9.72 65.24 9.72 62.72 13.82"/></svg>