<svg id="Layer_1" data-name="Layer 1" xmlns="http://www.w3.org/2000/svg" viewBox="0 0 373.55 450"><defs><style>.cls-1{fill:#fff;}</style></defs><title>rgvm-logo</title><path class="cls-1" d="M364.58,352.83q0-11,0-22.07c0-1.32,0-2.63,0-3.95a27.89,27.89,0,0,0-1.58-9.14,10.85,10.85,0,0,0-4.61-5.76c-2.5-1.53-5-3.12-7.42-4.71a68.36,68.36,0,0,1-11.57-9.3,75.65,75.65,0,0,1-8.44-10c-1.09-1.57-2.06-3.22-3.05-4.86a63.46,63.46,0,0,1-6.14-13.31,60.14,60.14,0,0,1-2.83-12.57c-0.23-2.32-.54-4.63-0.87-6.94a51,51,0,0,1-.11-10.92,72.41,72.41,0,0,1,1-8.18c0.49-2.64,1.21-5.24,1.91-7.84a51,51,0,0,1,2.38-6.75c0.94-2.19,1.9-4.39,3-6.49a77.13,77.13,0,0,1,8.13-12.22,93.25,93.25,0,0,1,8.9-9.33,50.28,50.28,0,0,1,4.19-3.37,78.79,78.79,0,0,1,16.62-9.49,61.84,61.84,0,0,1,6.24-2.21c2.41-.72,4.81-1.4,7.27-1.9a56.77,56.77,0,0,1,11.72-1.47c2.51,0,5,0,7.53,0a57.93,57.93,0,0,1,10.83,1.41c1.82,0.35,3.62.8,5.4,1.29,1.49,0.41,2.93,1,4.41,1.43,1.77,0.56,3.45,1.33,5.15,2.05a69.23,69.23,0,0,1,13.11,7.36,74.14,74.14,0,0,1,6.25,4.81c2.23,2,4.31,4.14,6.38,6.3a71.11,71.11,0,0,1,10.84,15.32,63.31,63.31,0,0,1,4.43,10.19,72.24,72.24,0,0,1,2.75,10,93.11,93.11,0,0,1,1.22,9.6,56.79,56.79,0,0,1-.23,11.28,107.46,107.46,0,0,1-2.25,13.8,68,68,0,0,1-4.79,13.1,76.49,76.49,0,0,1-8.9,14.05,72.36,72.36,0,0,1-8.71,9,79.16,79.16,0,0,1-11.21,8c-1.53.94-3,1.94-4.54,2.88a10.9,10.9,0,0,0-4.57,6,28.17,28.17,0,0,0-1.48,9.34q0,22.07,0,44.13,0,4.39.09,8.79a5.38,5.38,0,0,1-1.24,3.29c-0.63.87-1.3,1.71-2,2.56-2,2.62-3.93,5.26-6,7.84-4.63,5.87-8.91,12-13.26,18.05-1.36,1.89-2.79,3.73-4.18,5.6a2.05,2.05,0,0,1-1.89.8,1.81,1.81,0,0,1-1.42-.65c-0.41-.51-0.85-1-1.24-1.54-3.35-4.65-6.65-9.35-10-14-3-4-6.05-8-9.09-12l-5.22-6.84a5.25,5.25,0,0,1-1.12-3.33q0-13.63,0-27.27h0.08Zm43.59-43.13h0q0,5.56,0,11.12c0,0.9,0,1.79,0,2.69a1,1,0,0,0,1.12,1.09c2,0,4.07.07,6.1,0a1.4,1.4,0,0,0,1.6-1.53,32.19,32.19,0,0,1,.4-3.38,25,25,0,0,1,1.93-5.58,12.87,12.87,0,0,1,4-4.94c1.07-.77,2.15-1.51,3.28-2.2q5-3,9.69-6.47a59.81,59.81,0,0,0,9.88-9.06,67.39,67.39,0,0,0,7.9-11.08,68.89,68.89,0,0,0,4.59-9.52,63.89,63.89,0,0,0,2.93-10.15,96.12,96.12,0,0,0,1.53-10.64c0.08-.89.21-1.78,0.26-2.68,0.07-1.31.13-2.62,0.12-3.94s-0.12-2.39-.2-3.58a68.21,68.21,0,0,0-1.63-10.8,57,57,0,0,0-1.87-6.36c-0.75-2.14-1.48-4.28-2.4-6.35a80.86,80.86,0,0,0-6.35-11.22,63.39,63.39,0,0,0-8.19-10,67.49,67.49,0,0,0-10.47-8.69,71.25,71.25,0,0,0-14.3-7.41A58.52,58.52,0,0,0,407.47,176c-2.65-.45-5.29-1.06-8-1.28a94.09,94.09,0,0,0-13.44,0c-1.31.08-2.59,0.47-3.9,0.6a47.43,47.43,0,0,0-9.79,2.15,75.85,75.85,0,0,0-14.48,6.19,73,73,0,0,0-14.59,10.94,72.64,72.64,0,0,0-12.89,17.35c-1.23,2.32-2.37,4.69-3.4,7.11-0.79,1.86-1.37,3.82-2,5.74-0.32,1-.59,1.94-0.83,2.93q-0.7,3-1.22,6a80,80,0,0,0-.94,10.53,20.72,20.72,0,0,0,.09,3q0.47,4.46,1,8.9A63.25,63.25,0,0,0,326.58,270a70,70,0,0,0,8.87,16.53c1.57,2.19,3.34,4.2,5.1,6.24a42.34,42.34,0,0,0,5.14,5,90.9,90.9,0,0,0,10.16,7.35c1.94,1.19,3.84,2.43,5.75,3.66a12.06,12.06,0,0,1,4.3,4.71,22.56,22.56,0,0,1,2.68,9.41c0.05,1.32.46,1.71,1.76,1.73,1.85,0,3.71,0,5.56,0,1.26,0,1.45-.24,1.49-1.47,0-.18,0-0.36,0-0.54q0-9.69,0-19.38c0-1.85,0-3.71-.06-5.56a9,9,0,0,0-.8-3.66,42.27,42.27,0,0,0-2.35-4.63c-2.32-3.76-4.73-7.47-7.12-11.19-3.27-5.08-6.76-10-10.36-14.85a54.69,54.69,0,0,1-5.55-8.78,16.81,16.81,0,0,1-1.83-9.19,11.49,11.49,0,0,1,.7-2.94,20.87,20.87,0,0,1,2.55-4.51c2.53-3.63,5.08-7.24,7.62-10.87,0.45-.64.84-1.31,1.31-1.93a8.91,8.91,0,0,1,8.07-3.79c0.83,0.06,1.66.19,2.49,0.33,1.29,0.21,1.46.1,2.22-1,1.28-1.8,2.53-3.63,3.93-5.33a23.85,23.85,0,0,1,7.15-6.16,9.9,9.9,0,0,1,9.78-.16,17.7,17.7,0,0,1,7.27,8.61,1.69,1.69,0,0,0,1.79,1.19l0.72,0a11.67,11.67,0,0,1,4.57.67,11.31,11.31,0,0,1,6.88,6.39,35.06,35.06,0,0,1,1.39,4.25,4,4,0,0,0,1.33,2.07,12.4,12.4,0,0,1,3.91,6.1c0.42,1.31.7,2.65,1.07,4a9.81,9.81,0,0,0,.55,1.51c0.38,0.81.81,1.6,1.22,2.4a20.16,20.16,0,0,1,2.36,9.48,37.87,37.87,0,0,1-.51,4.81A31.91,31.91,0,0,1,425,269.2a66.78,66.78,0,0,1-3.95,7.44,73.16,73.16,0,0,1-7.2,10.26,47.82,47.82,0,0,0-4.37,5.68,8.42,8.42,0,0,0-1.34,4.75C408.21,301.44,408.17,305.57,408.17,309.7Zm14.68-51.55a3.12,3.12,0,0,0-1.09,1.61,19.13,19.13,0,0,1-2.52,4.32,10.05,10.05,0,0,1-7.33,4.32,5.74,5.74,0,0,1-2.8-.43,5,5,0,0,1-2.63-2.33,1.5,1.5,0,0,0-1.81-.79c-0.41.08-.81,0.24-1.22,0.31a5.07,5.07,0,0,1-5-1.69,8.58,8.58,0,0,1-2.09-5.59,10.19,10.19,0,0,0,0-1.25,0.51,0.51,0,0,0-.83-0.32c-0.6.49-1.19,1-1.75,1.53a10.07,10.07,0,0,1-3.85,2.23,4.66,4.66,0,0,1-3,.14,8.1,8.1,0,0,1-4.63-3.46A12.4,12.4,0,0,1,381,254a1,1,0,0,0-.81-1,1.38,1.38,0,0,0-1.12.79,2.87,2.87,0,0,0-.3.45,6,6,0,0,1-2.62,2.38,5.31,5.31,0,0,1-3.08.83,7.81,7.81,0,0,1-6.17-3.5,11.7,11.7,0,0,1-1.91-5.54,24.11,24.11,0,0,1,.29-6.07,39,39,0,0,1,3.42-10.53c0.66-1.33,1.21-2.72,1.75-4.11,0.36-.92.1-1.32-0.84-1.55a2.68,2.68,0,0,0-1.75.15,5.93,5.93,0,0,0-2.64,2.08c-2.53,3.63-5.1,7.23-7.63,10.85a32.35,32.35,0,0,0-3,4.91,6.65,6.65,0,0,0-.42,4.54,20.58,20.58,0,0,0,2.71,6.41c1.21,1.85,2.46,3.67,3.73,5.48,1.1,1.56,2.27,3.08,3.36,4.65,2,2.85,3.88,5.74,5.88,8.57,3.07,4.35,5.85,8.88,8.58,13.44a29.21,29.21,0,0,1,2.19,4.3,18.12,18.12,0,0,1,1.45,6.61c0,7.89.06,15.78,0,23.67,0,2.43-.09,2.77,2.64,2.76,5.32,0,10.64,0,16,0a14,14,0,0,0,1.43,0,1.16,1.16,0,0,0,1.23-1.25c0-.24,0-0.48,0-0.72,0-8.43,0-16.86,0-25.29A14,14,0,0,1,406,289c1.15-1.67,2.49-3.2,3.77-4.78,0.83-1,1.8-1.93,2.55-3a110.47,110.47,0,0,0,7.17-11.57,43.61,43.61,0,0,0,3.45-9A3.34,3.34,0,0,0,422.85,258.14Zm-30,138.21h0c3.35,0,6.69,0,10,0a2.94,2.94,0,0,0,2.69-1.39c1.84-2.58,3.79-5.08,5.7-7.6q2.23-2.92,4.48-5.82a4.21,4.21,0,0,0,.91-2.83c0-1.25,0-2.51,0-3.76,0-.3,0-0.6,0-0.9-0.1-1.12-.32-1.37-1.35-1.56l-0.36,0a11.84,11.84,0,0,1-4.94-2,13.65,13.65,0,0,1-4.12-4.18,4.09,4.09,0,0,0-.53-0.71,0.85,0.85,0,0,0-1.14-.11,7.52,7.52,0,0,0-.64.62,14.92,14.92,0,0,1-4.48,2.91,17.75,17.75,0,0,1-4.86,1.15,14.58,14.58,0,0,1-6-.54,13.94,13.94,0,0,1-6.18-3.48c-1-1-1.45-.91-2.26.25-0.1.15-.19,0.3-0.29,0.46a11.8,11.8,0,0,1-9.05,5.69c-1.19.14-1.47,0.36-1.51,1.57,0,1.61.07,3.22,0,4.83a4.43,4.43,0,0,0,1,3c3.46,4.5,6.87,9,10.3,13.55a2.11,2.11,0,0,0,1.67.91c0.3,0,.6,0,0.9,0h10Zm10.77-52.77h0q0-5.91,0-11.83c0-2.35-.16-2.51-2.57-2.51H384.4c-0.36,0-.72,0-1.07,0a1.26,1.26,0,0,0-1.37,1.33c0,0.47,0,1,0,1.43q0,10,0,20.07c0,1.08,0,2.15,0,3.23a9.89,9.89,0,0,0,3,7.42,10.22,10.22,0,0,0,4.63,2.61,13.83,13.83,0,0,0,5.32.24,11.67,11.67,0,0,0,5.16-2.32,8.51,8.51,0,0,0,2.32-2.7,11.3,11.3,0,0,0,1.31-5.69C403.67,351.11,403.66,347.35,403.66,343.59Zm13,5h0q0-7.79,0-15.59c0-.9.05-1.79,0-2.69a0.94,0.94,0,0,0-.88-1.14q-3.48-.09-7,0a0.94,0.94,0,0,0-.93,1.1c0,1.07,0,2.15,0,3.22,0,7.7,0,15.41,0,23.11a19.18,19.18,0,0,0,.5,4.44,9.56,9.56,0,0,0,2.6,4.61,11.06,11.06,0,0,0,3.83,2.22c1.29,0.55,1.86.11,1.88-1.34,0-.12,0-0.24,0-0.36Q416.69,357.36,416.69,348.58Zm-47.85,0h0.05c0,3.58,0,7.16,0,10.75,0,2.45-.06,4.89-0.09,7.34a1.19,1.19,0,0,0,1.75,1.29,12,12,0,0,0,2.61-1.16,9.25,9.25,0,0,0,4.07-6.08,21.11,21.11,0,0,0,.42-5c-0.06-1.61,0-3.22,0-4.83q0-10.12,0-20.23c0-1.18-.27-1.54-1.42-1.56-2,0-4.06,0-6.09,0a1.11,1.11,0,0,0-1.24,1.37Q368.84,339.5,368.85,348.54Zm32.16-93a10.3,10.3,0,0,0,.46,3.54,1.47,1.47,0,0,0,2.51.77,6.42,6.42,0,0,0,1.62-1.89,35.73,35.73,0,0,0,2.86-6.76c1.06-3.42,2.14-6.84,3.15-10.28a20.81,20.81,0,0,0,1.16-4.87c0.05-1.16-.45-1.52-1.53-1a5.16,5.16,0,0,0-1.07.66,17.59,17.59,0,0,0-3.42,3.65,35.62,35.62,0,0,0-4.85,10.34A22.68,22.68,0,0,0,401,255.54ZM400.93,232c-0.12-1.61-.23-3.21-0.37-4.82a3.14,3.14,0,0,0-.32-1,0.85,0.85,0,0,0-1.07-.4,2.85,2.85,0,0,0-.63.34,26.39,26.39,0,0,0-4.76,4.32,1,1,0,0,0,.18,1.69c0.13,0.12.3,0.21,0.42,0.33a31.42,31.42,0,0,1,2.47,2.58,5.66,5.66,0,0,1,.93,5.74,10.57,10.57,0,0,1-4,5,13.93,13.93,0,0,1-7.31,2.63,1.48,1.48,0,0,0-1.56,2,18.26,18.26,0,0,0,.88,2.91,4.43,4.43,0,0,0,.91,1.31,1.93,1.93,0,0,0,2.73.41,10,10,0,0,0,1.67-1.33,33.54,33.54,0,0,0,5.65-7.37,26,26,0,0,0,2.92-6.71A36.84,36.84,0,0,0,400.93,232Zm-28,4.36a5.79,5.79,0,0,0,1.07,3.55,7.8,7.8,0,0,0,4.14,3.26,1.38,1.38,0,0,0,1.74-.53,3.74,3.74,0,0,0,.45-0.77c1.13-2.63,2.28-5.26,3.38-7.9,0.48-1.17.21-1.75-1-2.27-1.47-.66-2.95-1.3-4.42-2-0.55-.24-1.08-0.52-1.63-0.75a1,1,0,0,0-1.14.26,3.4,3.4,0,0,0-.34.42,17.51,17.51,0,0,0-2.23,5.8A4.5,4.5,0,0,0,372.88,236.32Zm20,164.29h-6.8a0.78,0.78,0,0,0-.89.42,1.81,1.81,0,0,0,.15,1,3.23,3.23,0,0,0,.51.73c0.94,1.24,1.88,2.47,2.82,3.7,1.09,1.42,2.18,2.84,3.29,4.25a0.9,0.9,0,0,0,1.61,0c0.11-.14.2-0.3,0.31-0.44l5.9-7.66a4.53,4.53,0,0,0,.48-0.75,0.79,0.79,0,0,0-.76-1.22h-6.62ZM388.82,217c0-.43,0-0.79,0-1.14a7.06,7.06,0,0,0-.06-1.07,1.07,1.07,0,0,0-1.71-.85,13.83,13.83,0,0,0-2.16,1.57,32.32,32.32,0,0,0-5.68,7.09,5.36,5.36,0,0,0-.42.78,1,1,0,0,0,.41,1.4,7.28,7.28,0,0,0,.95.5l3.74,1.7a7.14,7.14,0,0,0,1,.4,1.22,1.22,0,0,0,1.51-.65,2.64,2.64,0,0,0,.23-0.48c0.52-1.52,1.12-3,1.53-4.57A11.58,11.58,0,0,0,388.82,217Zm30.94,30.82a8.56,8.56,0,0,0-.07-1.12,0.78,0.78,0,0,0-1.22-.56,12,12,0,0,0-1.83,1.68,14.4,14.4,0,0,0-1.79,3.08,64.82,64.82,0,0,0-3.68,8.53,7.7,7.7,0,0,0-.46,3.17,1,1,0,0,0,1.37,1,5.09,5.09,0,0,0,2.28-1.36,13.91,13.91,0,0,0,2.86-4.08A30.92,30.92,0,0,0,419.76,247.8ZM405,225c0,0.3.11,0.77,0.19,1.24a19.6,19.6,0,0,1,.45,4.6,2.84,2.84,0,0,0,0,.53,0.82,0.82,0,0,0,1.27.71,2.83,2.83,0,0,0,.46-0.27,10.74,10.74,0,0,1,4-1.89,1,1,0,0,0,.8-1.21,3.68,3.68,0,0,0-.33-1,7.21,7.21,0,0,0-5.7-4.07C405.39,223.5,405,224,405,225Zm-35.24,21.4c0.1,0.84.15,1.79,0.33,2.72A4.9,4.9,0,0,0,371.7,252a1.64,1.64,0,0,0,2.53,0,14.42,14.42,0,0,0,2.33-3.13,0.84,0.84,0,0,0-.4-1.2,4.88,4.88,0,0,0-.65-0.29,11.46,11.46,0,0,1-3.92-2.74c-0.21-.21-0.39-0.45-0.62-0.64a0.66,0.66,0,0,0-1.1.39C369.77,245,369.77,245.61,369.72,246.38Zm17.52-3.1a3.56,3.56,0,0,0,.46-0.06,9.2,9.2,0,0,0,4.94-3.06c0.86-1,.8-1.61-0.06-2.71a8.75,8.75,0,0,0-1-1.06,1.36,1.36,0,0,0-2.36.31c-0.76,1.28-1.48,2.59-2.2,3.91a12.44,12.44,0,0,0-.65,1.47A0.8,0.8,0,0,0,387.24,243.27Zm6-19.35c1.49-1,3-2,4.4-3.06a1.09,1.09,0,0,0,.39-1.28,3.38,3.38,0,0,0-.4-1c-0.84-1.22-1.71-2.43-2.58-3.63a0.75,0.75,0,0,0-.91-0.37,0.93,0.93,0,0,0-.47.89,4.33,4.33,0,0,0,0,.71,14.13,14.13,0,0,1-.78,6.48A0.91,0.91,0,0,0,393.24,223.93Zm25.24,16a9,9,0,0,0-.33-0.86,0.49,0.49,0,0,0-.86-0.08,5.93,5.93,0,0,0-.47,1.32,0.72,0.72,0,0,0,1.06.74A1.06,1.06,0,0,0,418.48,240Z" transform="translate(-206.44 -86.45)"/><path class="cls-1" d="M456.7,178a2.93,2.93,0,0,1,1-2.07c2-1.94,3.88-3.89,5.83-5.84q6.14-6.16,12.29-12.31c2.79-2.79,5.6-5.56,8.4-8.34s5.66-5.67,8.5-8.5,5.44-5.38,8.14-8.09a2.56,2.56,0,0,1,2.26-.8,2,2,0,0,1,1.54,3.06,5.65,5.65,0,0,1-.91,1.1c-2.12,2.1-4.26,4.19-6.38,6.29q-4.08,4-8.14,8.08c-1.86,1.86-3.67,3.77-5.53,5.63-2.75,2.74-5.53,5.46-8.29,8.19-1.32,1.3-2.61,2.63-3.92,3.94l-6.05,6.12c-1.56,1.57-3.11,3.14-4.68,4.7a4.63,4.63,0,0,1-1.13.86A2,2,0,0,1,456.7,178Z" transform="translate(-206.44 -86.45)"/><path class="cls-1" d="M282.69,356a2,2,0,0,1-1.8-2.94,5.8,5.8,0,0,1,1-1.44c1.8-1.83,3.64-3.62,5.46-5.43l12.79-12.8,15.6-15.58,8.49-8.49a4.48,4.48,0,0,1,.78-0.73,5.18,5.18,0,0,1,1.45-.66,1.93,1.93,0,0,1,2,.81,1.82,1.82,0,0,1,.06,2.19,11.52,11.52,0,0,1-1.45,1.81c-2.36,2.37-4.75,4.71-7.12,7.07-2.92,2.91-5.82,5.84-8.74,8.75-3.81,3.79-7.64,7.57-11.44,11.36q-6.66,6.65-13.29,13.32c-0.67.68-1.35,1.35-2,2.06A2.11,2.11,0,0,1,282.69,356Z" transform="translate(-206.44 -86.45)"/><path class="cls-1" d="M282.77,131.86a2.77,2.77,0,0,1,1.81.85c1.19,1.18,2.42,2.32,3.6,3.5q6,6,12,12.08c1.72,1.74,3.4,3.53,5.14,5.26,4.5,4.46,9,8.89,13.53,13.35,3,2.95,5.9,5.94,8.87,8.89a3.22,3.22,0,0,1,1.12,2.53A2,2,0,0,1,326,180a5.28,5.28,0,0,1-1.4-1.08c-2.2-2.2-4.35-4.44-6.55-6.64-3.38-3.38-6.79-6.74-10.17-10.12q-5.45-5.45-10.88-10.92l-4.18-4.19q-4.55-4.57-9.11-9.14c-0.59-.59-1.25-1.11-1.85-1.7a7,7,0,0,1-1-1.22,2.18,2.18,0,0,1,.31-2.49A6.19,6.19,0,0,1,282.77,131.86Z" transform="translate(-206.44 -86.45)"/><path class="cls-1" d="M517.14,246.1H487.38a11.92,11.92,0,0,1-2.13-.21,1.46,1.46,0,0,1-1.22-1.37,2.08,2.08,0,0,1,1.81-2.61,8.9,8.9,0,0,1,1.78-.11h39.8c6.57,0,13.15,0,19.72,0a5.61,5.61,0,0,1,2.1.33,1.94,1.94,0,0,1,.68,3.23,2.5,2.5,0,0,1-1.07.6,5.34,5.34,0,0,1-1.42.14h-30.3Z" transform="translate(-206.44 -86.45)"/><path class="cls-1" d="M502.67,356a2.2,2.2,0,0,1-1.79-.84q-4.65-4.72-9.35-9.41c-3.29-3.29-6.61-6.57-9.91-9.86l-10.26-10.26c-1.94-1.94-3.91-3.86-5.86-5.8s-4-4.06-6.05-6.1c-0.67-.68-1.32-1.37-2-2.06a3.3,3.3,0,0,1-.33-0.42,2.05,2.05,0,0,1,0-2.64,2.12,2.12,0,0,1,2.77-.37,4,4,0,0,1,.83.67q6,5.94,11.92,11.9c2.36,2.37,4.69,4.77,7.07,7.12s4.88,4.74,7.3,7.14q6.49,6.43,13,12.89c1.31,1.31,2.6,2.63,3.91,3.95a3.12,3.12,0,0,1,1,1.49A2,2,0,0,1,502.67,356Z" transform="translate(-206.44 -86.45)"/><path class="cls-1" d="M268.34,246.12H238.22a7.4,7.4,0,0,1-1.6-.15,2,2,0,0,1-1.56-1.76,1.87,1.87,0,0,1,1.15-2,5.17,5.17,0,0,1,1.73-.37c1-.06,1.91,0,2.87,0l57,0a8.26,8.26,0,0,1,2.3.24,2.08,2.08,0,0,1,1.22,3,1.63,1.63,0,0,1-.93.75,10.19,10.19,0,0,1-2.3.25q-10.94,0-21.87,0h-7.89v0Z" transform="translate(-206.44 -86.45)"/><path class="cls-1" d="M390.59,119.53q0-12.19,0-24.37c0-1.85,0-3.7,0-5.55a8.45,8.45,0,0,1,.1-1.43,2.13,2.13,0,0,1,4.2.11,8.21,8.21,0,0,1,.07,1.25q0,27.78,0,55.55c0,1.55,0,3.11,0,4.66a8.79,8.79,0,0,1-.07,1.43,2.13,2.13,0,0,1-4.19.07,11.65,11.65,0,0,1-.09-2q0-14.87,0-29.75h0Z" transform="translate(-206.44 -86.45)"/><path class="cls-1" d="M206.44,518q0-8,0-16c0-2.09.43-2.48,2.54-2.5a2.08,2.08,0,0,1,2.25,1.37c0.33,0.83.74,1.63,1.11,2.44,1.11,2.45,2.21,4.9,3.32,7.34,0.59,1.3,1.22,2.59,1.81,3.89q2.35,5.13,4.69,10.26c0.22,0.49.4,1,.66,1.47a1.26,1.26,0,0,0,2.29,0,6.64,6.64,0,0,0,.38-0.81l2-4.59,6.3-14.26q1.12-2.54,2.27-5.06a7.23,7.23,0,0,1,.49-1,2.23,2.23,0,0,1,2.25-1.16c0.36,0,.72,0,1.07.08a1.28,1.28,0,0,1,1.38,1.34,10,10,0,0,1,.07,1.43q0,15.69,0,31.39a7.69,7.69,0,0,1-.06,1.25,2.18,2.18,0,0,1-.34.81,0.5,0.5,0,0,1-.86-0.06,1.81,1.81,0,0,1-.18-0.68c0-.36,0-0.72,0-1.08q0-15.51,0-31c0-.24,0-0.48,0-0.72a1,1,0,0,0-.61-1.17,1.43,1.43,0,0,0-1.64.41,8.65,8.65,0,0,0-1,1.69q-2.68,6-5.31,12-2.53,5.74-5.06,11.48a7,7,0,0,1-.6,1.1,2,2,0,0,1-3.62-.1c-0.35-.62-0.65-1.28-0.95-1.93q-2.44-5.38-4.87-10.77-2.24-5-4.47-10c-0.44-1-.9-2-1.35-2.93a1.47,1.47,0,0,0-1.2-1,1.07,1.07,0,0,0-1.39,1.29c0,1.43,0,2.87,0,4.3q0,13.45,0,26.9a9.89,9.89,0,0,1-.16,1.77,0.58,0.58,0,0,1-1.07,0,7.33,7.33,0,0,1-.18-1.59c0-3.17,0-6.34,0-9.51q0-3.14,0-6.28h0Z" transform="translate(-206.44 -86.45)"/><path class="cls-1" d="M449.75,517.94q0,7.18,0,14.35c0,0.9,0,1.79-.08,2.69a1.22,1.22,0,0,1-.58,1.05,3.23,3.23,0,0,1-3.75-.67,6.45,6.45,0,0,1-.45-0.77q-5-9-10.07-18c-2.27-4.07-4.5-8.16-6.75-12.24-0.43-.78-0.84-1.58-1.28-2.36a1.63,1.63,0,0,0-1.46-.88,1,1,0,0,0-1,.82,5.06,5.06,0,0,0,0,.72q0,15.34,0,30.67c0,0.48,0,1,0,1.43a1.54,1.54,0,0,1-.23.66,0.55,0.55,0,0,1-.42.25,0.78,0.78,0,0,1-.54-0.35,6.1,6.1,0,0,1-.15-1.41c0-6.52,0-13,0-19.55,0-3.35,0-6.7,0-10,0-1.08,0-2.15.06-3.23a1.29,1.29,0,0,1,1.26-1.45,8.14,8.14,0,0,1,1.07-.11,2,2,0,0,1,2,1.17c0.46,0.9,1,1.78,1.47,2.67q5.79,10.32,11.58,20.63c1.69,3,3.33,6.08,5,9.1a6.25,6.25,0,0,0,1.08,1.41,1,1,0,0,0,1.62-.36,2.78,2.78,0,0,0,.19-1q0-13.36,0-26.73c0-1.55,0-3.11,0-4.66a5.12,5.12,0,0,1,.22-1.4,0.68,0.68,0,0,1,.56-0.32,0.79,0.79,0,0,1,.53.38,1.45,1.45,0,0,1,.11.69q0,8.43,0,16.86h0Z" transform="translate(-206.44 -86.45)"/><path class="cls-1" d="M379.53,517.87q0-7.8,0-15.61a9.41,9.41,0,0,1,.11-1.61,1.26,1.26,0,0,1,1.08-1.06,4.29,4.29,0,0,1,2.3.18,1.8,1.8,0,0,1,1,1c0.4,0.8.82,1.6,1.26,2.37,1.85,3.27,3.74,6.53,5.57,9.81,2.29,4.12,4.53,8.28,6.8,12.41q2.25,4.08,4.55,8.14a4.49,4.49,0,0,0,.78,1,1.05,1.05,0,0,0,1.82-.48,3.3,3.3,0,0,0,.09-0.89q0-12.83,0-25.65c0-1.85,0-3.71,0-5.56a5,5,0,0,1,.24-1.38,0.55,0.55,0,0,1,.9-0.07,2,2,0,0,1,.31,1.36q0,2.42,0,4.84,0,13,0,26c0,0.72,0,1.44-.07,2.15a1.46,1.46,0,0,1-1.31,1.47,2.64,2.64,0,0,1-3.42-1.53L396.64,526c-1.81-3.23-3.64-6.45-5.43-9.68-2.23-4-4.43-8.07-6.64-12.1-0.43-.78-0.85-1.58-1.35-2.32a2.16,2.16,0,0,0-1-.72,1,1,0,0,0-1.34.81,14.73,14.73,0,0,0-.06,1.79q0,14.71.06,29.42c0,0.54,0,1.08,0,1.61a1.43,1.43,0,0,1-.23.66,0.58,0.58,0,0,1-.44.22,0.53,0.53,0,0,1-.41-0.26,6.21,6.21,0,0,1-.21-1.39c0-2.27,0-4.54,0-6.82q0-4.66,0-9.33h0Z" transform="translate(-206.44 -86.45)"/><path class="cls-1" d="M343.61,465.59q0-1.52,0-3,0-6.45,0-12.9c0-2,.32-2.36,2.41-2.39,2.69,0,5.38,0,8.06,0,1.43,0,2.87-.08,4.3,0a36.25,36.25,0,0,1,4.46.37,4.26,4.26,0,0,1,2.93,1.88,6.2,6.2,0,0,1,1.16,3.52c0,2.87,0,5.73,0,8.6a10.41,10.41,0,0,1-.35,2.47c-0.53,2-2.64,3.85-4.56,3.64a2.24,2.24,0,0,0-.54,0,1.29,1.29,0,0,0-1.15,2c1.68,3.89,3.38,7.77,5.08,11.66a5.15,5.15,0,0,1,.44,1.16,0.94,0.94,0,0,1-.26.77,0.52,0.52,0,0,1-.73-0.28,3.9,3.9,0,0,1-.34-0.63q-1.68-3.86-3.35-7.72c-0.76-1.75-1.53-3.5-2.25-5.27a2.21,2.21,0,0,0-2.2-1.5l-4.48,0H347a7.77,7.77,0,0,0-.89,0,1.08,1.08,0,0,0-1.07,1,8.3,8.3,0,0,0,0,1.07q0,5.91,0,11.83a6.23,6.23,0,0,1,0,.89,0.77,0.77,0,0,1-.63.75,0.72,0.72,0,0,1-.7-0.68,6.66,6.66,0,0,1,0-.89q0-7.44.06-14.87c0-.48,0-1,0-1.43h-0.05Zm10.62,0.94v0h2.69l4.83,0a3,3,0,0,0,2-.64,4.3,4.3,0,0,0,1.79-3.35c0-3.22.06-6.45,0-9.67A4.15,4.15,0,0,0,362,448.7a11.18,11.18,0,0,0-2-.13c-3,0-6,0-9,0-1.55,0-3.1,0-4.65,0a1.2,1.2,0,0,0-1.4,1.28,13.92,13.92,0,0,0,0,1.43c0,4.3,0,8.59,0,12.89,0,1.62,0,2.32,2.26,2.33h7Z" transform="translate(-206.44 -86.45)"/><path class="cls-1" d="M568.2,536.45c-2,0-3.95,0-5.92,0a6.32,6.32,0,0,1-3.41-.94,4.49,4.49,0,0,1-2.06-2.61,13,13,0,0,1-.43-1.74,2.78,2.78,0,0,1,.09-1,0.55,0.55,0,0,1,.4-0.3,0.56,0.56,0,0,1,.46.2,2.94,2.94,0,0,1,.32.82c0.1,0.4.12,0.83,0.24,1.23a3.93,3.93,0,0,0,4,3c1.08,0,2.15,0,3.23,0,3,0,6,0,9,0a3.94,3.94,0,0,0,3.93-2.28,3.57,3.57,0,0,0,.41-1.35c0.09-2.33.15-4.66,0.15-7s-1.13-3.72-3.5-4.38c-4.49-1.24-9-2.36-13.52-3.54a7.44,7.44,0,0,1-4-2.19,3.12,3.12,0,0,1-.82-1.74,48.13,48.13,0,0,1-.06-8.24,5.28,5.28,0,0,1,5.35-5c3.82-.13,7.65-0.11,11.48,0a5.64,5.64,0,0,1,4.34,1.81,6.86,6.86,0,0,1,1.47,3.41,0.69,0.69,0,0,1-.11.51,1.13,1.13,0,0,1-.57.34,0.51,0.51,0,0,1-.44-0.21,6.87,6.87,0,0,1-.39-1.17,3.81,3.81,0,0,0-3.43-3.16,7.67,7.67,0,0,0-1.07-.07H562.51a8,8,0,0,0-1.07,0,3.82,3.82,0,0,0-3.25,2.47,6,6,0,0,0-.51,2.95c0.13,1.24,0,2.51,0,3.76a11.31,11.31,0,0,0,.19,1.78,3.73,3.73,0,0,0,2.11,2.74,10.88,10.88,0,0,0,2.17.85c4.5,1.19,9,2.39,13.53,3.51,2.85,0.71,4.12,2.53,4.26,5.63a55.89,55.89,0,0,1-.07,6.45c-0.2,2.81-2,5.27-5.2,5.38-2.15.07-4.3,0-6.46,0v0Z" transform="translate(-206.44 -86.45)"/><path class="cls-1" d="M476.89,279.2c0-.13,0-0.37,0-0.61a1.42,1.42,0,0,1,1-1.32,3.76,3.76,0,0,1,2.63,0c1.28,0.5,2.58,1,3.85,1.48,2.1,0.86,4.18,1.75,6.28,2.62l9.93,4.1c0.33,0.14.62,0.38,0.95,0.51,1.15,0.45,1.39,1.23,1.25,2.67a2,2,0,0,1-1.95,1.56,4.57,4.57,0,0,1-1.74-.29c-2.34-.91-4.65-1.89-7-2.82-2.77-1.11-5.55-2.2-8.33-3.3-1.61-.64-3.22-1.27-4.82-1.93a7.33,7.33,0,0,1-1.24-.72A1.72,1.72,0,0,1,476.89,279.2Z" transform="translate(-206.44 -86.45)"/><path class="cls-1" d="M285.15,289.41c-1.72,0-2.43-.46-2.69-1.55a2.58,2.58,0,0,1,1.21-2.76,7.58,7.58,0,0,1,.82-0.36c2.83-1.13,5.66-2.26,8.48-3.4,2.55-1,5.08-2.1,7.62-3.13,1.55-.63,3.11-1.23,4.67-1.83a2.54,2.54,0,0,1,3.26,1.89,1.84,1.84,0,0,1-.38,1.52,4.59,4.59,0,0,1-2,1.43c-3.68,1.43-7.34,2.89-11,4.36-2.61,1-5.2,2.12-7.81,3.14C286.49,289,285.62,289.26,285.15,289.41Z" transform="translate(-206.44 -86.45)"/><path class="cls-1" d="M425.8,156.93a11.1,11.1,0,0,1,.38-1.32c1.17-3,2.37-6,3.55-9,0.7-1.77,1.37-3.56,2.1-5.32,0.85-2,1.71-4.06,2.67-6,0.88-1.82,2.84-1.9,4-.26a2,2,0,0,1,.26,1.88c-0.38,1.13-.79,2.25-1.23,3.36q-1.14,2.91-2.34,5.8c-0.5,1.21-1.09,2.38-1.59,3.59-0.73,1.76-1.41,3.54-2.13,5.31-0.49,1.21-1,2.43-1.55,3.62a2.26,2.26,0,0,1-3.19.94C425.9,159,425.7,158.23,425.8,156.93Z" transform="translate(-206.44 -86.45)"/><path class="cls-1" d="M359.63,157.38c0,2.13-1.65,3.14-3.12,2.29a3.77,3.77,0,0,1-1.13-1.11,7.53,7.53,0,0,1-.7-1.45q-1.86-4.45-3.71-8.91-2.08-5-4.12-10.1a8.21,8.21,0,0,1-.36-1,2.47,2.47,0,0,1,1.3-3,2.36,2.36,0,0,1,3,1.27c0.41,0.79.77,1.62,1.11,2.45,0.65,1.6,1.26,3.22,1.91,4.82,1.71,4.2,3.44,8.39,5.14,12.59C359.27,156,359.48,156.92,359.63,157.38Z" transform="translate(-206.44 -86.45)"/><path class="cls-1" d="M496.52,499.53h0.56c1.64,0,2,.35,2.5,2,0.83,2.74,1.71,5.47,2.56,8.2q1.86,6,3.7,12t3.69,12.17a6.32,6.32,0,0,1,.21,1.4,0.51,0.51,0,0,1-.31.37,0.52,0.52,0,0,1-.48-0.1,4.53,4.53,0,0,1-.55-1.1c-0.65-2.11-1.31-4.22-1.9-6.35a1.69,1.69,0,0,0-1.81-1.39c-0.84,0-1.67-.07-2.51-0.07H487.5a1.55,1.55,0,0,0-1.6,1.18c-0.21.68-.46,1.36-0.66,2-0.46,1.54-.88,3.1-1.37,4.64a4.82,4.82,0,0,1-.68,1.22,0.52,0.52,0,0,1-.48.08,0.53,0.53,0,0,1-.3-0.38,3.23,3.23,0,0,1,.11-1c1.31-4.16,2.65-8.31,4-12.46q1.19-3.76,2.36-7.53c0.51-1.65,1-3.31,1.47-5l2.12-7.22a3.1,3.1,0,0,1,.11-0.34c0.9-2.12,1.4-2.47,3.46-2.35Zm-0.38,25.72h7.53c1.62,0,1.85-.35,1.34-2-0.94-3-1.88-5.92-2.79-8.89-1.12-3.66-2.19-7.32-3.3-11-0.14-.46-0.35-0.89-0.48-1.35a1.32,1.32,0,0,0-1.3-1l-0.71-.06c-1.93-.08-2.42.25-3,2.09-1.13,3.71-2.23,7.44-3.35,11.16-0.36,1.2-.7,2.41-1.07,3.61-0.59,1.88-1.22,3.75-1.78,5.64-0.39,1.31,0,1.76,1.35,1.77C491.12,525.26,493.63,525.25,496.15,525.25Z" transform="translate(-206.44 -86.45)"/><path class="cls-1" d="M479.71,211.69a2.42,2.42,0,0,1-2.62-2.08,1.78,1.78,0,0,1,.73-1.73,9.32,9.32,0,0,1,1.71-1c2.94-1.17,5.91-2.27,8.84-3.45,3.22-1.29,6.41-2.63,9.62-3.93a20.31,20.31,0,0,1,2.36-.84,2.25,2.25,0,0,1,2.7,1.22,2.27,2.27,0,0,1-.84,2.83,4.68,4.68,0,0,1-.95.5l-11,4.37c-3,1.19-6,2.41-9,3.59A16.39,16.39,0,0,1,479.71,211.69Z" transform="translate(-206.44 -86.45)"/><path class="cls-1" d="M305.9,210.95a11.2,11.2,0,0,1-1.53-.4c-1.67-.64-3.32-1.34-5-2l-8.45-3.45c-1.93-.79-3.88-1.56-5.8-2.37a10.93,10.93,0,0,1-1.74-.91,1.87,1.87,0,0,1-.52-2.67c0.84-1.17,1.5-1.47,2.75-1.13a26.88,26.88,0,0,1,3.21,1.13c5.08,2.09,10.14,4.21,15.22,6.32,0.83,0.34,1.7.57,2.5,1a6.87,6.87,0,0,1,1.57,1.15,1.74,1.74,0,0,1,.48,1.48C308.5,210.33,307.74,211,305.9,210.95Z" transform="translate(-206.44 -86.45)"/><path class="cls-1" d="M343.43,518c0-2.57,0-5.14,0-7.7,0-2.27-.06-4.54-0.08-6.81,0-.78,0-1.55,0-2.33a1.25,1.25,0,0,1,1.08-1.25,5.69,5.69,0,0,1,1.24-.12h16.5a6.64,6.64,0,0,1,1.41.13,0.67,0.67,0,0,1,.41.49,0.65,0.65,0,0,1-.38.49,4.93,4.93,0,0,1-1.24.13L347,501c-0.24,0-.48,0-0.72,0a1.33,1.33,0,0,0-1.45,1.61c0,4.18,0,8.37,0,12.56,0,1.3.39,1.71,1.71,1.78,0.89,0.05,1.79,0,2.69,0l7.35,0c0.9,0,1.79-.06,2.69-0.05a0.76,0.76,0,0,1,.86.48c0.1,0.32-.27.63-0.87,0.67s-1,0-1.43,0l-10.58,0a9.67,9.67,0,0,0-1.25,0,1.24,1.24,0,0,0-1.17,1.15,6.08,6.08,0,0,0,0,.89q0,6,0,12a11.61,11.61,0,0,0,.1,1.78,1.05,1.05,0,0,0,1,.91,11,11,0,0,0,1.25.05h14.71a8.22,8.22,0,0,1,1.6.14,0.54,0.54,0,0,1,.42.69,0.81,0.81,0,0,1-.45.49,3.58,3.58,0,0,1-1.06.12H345.51a4.61,4.61,0,0,1-.71,0,1.37,1.37,0,0,1-1.33-1.43c0-.77,0-1.55,0-2.33q0-6.28-.05-12.55c0-.66.06-1.31,0.1-2h0Z" transform="translate(-206.44 -86.45)"/><path class="cls-1" d="M381.9,465.81c0-4.06,0-8.13,0-12.19,0-.66.07-1.31,0.12-2a4.92,4.92,0,0,1,4.88-4.34c3,0,6,0,9,0,1.43,0,2.87,0,4.3,0a7.28,7.28,0,0,1,3.28.78,5.31,5.31,0,0,1,2.22,5.29,0.67,0.67,0,0,1-.48.43,0.71,0.71,0,0,1-.46-0.44c-0.28-.85-0.47-1.73-0.76-2.57a2.82,2.82,0,0,0-2-1.89,11,11,0,0,0-2.63-.48c-3.77-.05-7.53,0-11.3,0a5,5,0,0,0-2.61.53,4.61,4.61,0,0,0-2.32,3.25,13,13,0,0,0-.19,2.32q0,11.21.05,22.42a13.14,13.14,0,0,0,.15,2.32,4.36,4.36,0,0,0,3.74,3.6,9.2,9.2,0,0,0,1.43.1l10.76,0c0.36,0,.72,0,1.07,0a4.51,4.51,0,0,0,4.52-5c0-1.55,0-3.11,0-4.66,0-1,0-2,0-3,0-.36,0-0.72,0-1.07a1.48,1.48,0,0,0-1.57-1.59c-1.25-.08-2.51-0.06-3.76-0.09a6.33,6.33,0,0,1-1.24-.08,0.76,0.76,0,0,1-.37-0.5,0.62,0.62,0,0,1,.33-0.36,1.1,1.1,0,0,1,.52-0.1l5.38,0.08a5.4,5.4,0,0,1,.89.07,1,1,0,0,1,.92,1,10.59,10.59,0,0,1,0,1.25c0,3.47,0,6.93,0,10.4a5,5,0,0,1-3.7,4.69,15.92,15.92,0,0,1-3.73.47c-3,0-6.1,0-9.14,0a19.77,19.77,0,0,1-3.2-.36,4.82,4.82,0,0,1-3.93-4.13,14,14,0,0,1-.09-2c0-2,0-4.06,0-6.1s0-3.95,0-5.92H381.9Z" transform="translate(-206.44 -86.45)"/><path class="cls-1" d="M432.2,484.14c-2.77-.06-2.95-0.24-3.62-2.71-1.43-5.24-2.91-10.47-4.36-15.71-0.81-2.93-1.61-5.88-2.43-8.81-0.58-2.07-1.23-4.12-1.79-6.19a18.3,18.3,0,0,1-.41-2.45,0.51,0.51,0,0,1,.32-0.36,0.52,0.52,0,0,1,.46.14,5,5,0,0,1,.52,1.12q0.74,2.49,1.43,5,2,7.34,4.05,14.68,1.22,4.4,2.47,8.8c0.32,1.15.68,2.29,1,3.44s0.79,1.48,2,1.63a3.77,3.77,0,0,0,.72,0,1.75,1.75,0,0,0,1.72-1.32q0.9-3.09,1.8-6.18c0.48-1.66,1-3.32,1.46-5l2.06-7c0.49-1.66,1-3.32,1.45-5,0.2-.69.34-1.39,0.53-2.08,0.66-2.36,1.32-4.71,2-7.06a3.92,3.92,0,0,1,.61-1.06,0.42,0.42,0,0,1,.6.17,1.86,1.86,0,0,1,.07.69c-0.12.58-.27,1.16-0.44,1.74-1.27,4.54-2.54,9.09-3.83,13.62q-2,7.15-4.12,14.29c-0.4,1.38-.87,2.73-1.24,4.11a1.76,1.76,0,0,1-1.8,1.43Z" transform="translate(-206.44 -86.45)"/><path class="cls-1" d="M524.74,517.88q0-8.16,0-16.31a6,6,0,0,1,.21-1.39,0.51,0.51,0,0,1,.4-0.3,0.81,0.81,0,0,1,.59.28,2.31,2.31,0,0,1,.25,1q0,12.55,0,25.09c0,2,0,4.06,0,6.09,0,0.18,0,.36,0,0.54,0,1.66.36,2,2,2,4.42,0,8.84,0,13.27,0a12.69,12.69,0,0,1,2.12.22,0.76,0.76,0,0,1,.34.54,0.5,0.5,0,0,1-.29.39,5.11,5.11,0,0,1-1.38.28q-7.89,0-15.77,0c-1.2,0-1.59-.38-1.65-1.61s0-2.15-.05-3.23q0-6.81,0-13.62h0Z" transform="translate(-206.44 -86.45)"/><path class="cls-1" d="M276.38,517.91c0-5.26,0-10.53,0-15.79a9.71,9.71,0,0,1,.22-1.76A0.51,0.51,0,0,1,277,500a0.79,0.79,0,0,1,.57.31,3.19,3.19,0,0,1,.27,1.2q0,15.52-.07,31c0,2,.22,2.31,2.21,2.31,4.43,0,8.85,0,13.28,0a7.36,7.36,0,0,1,1.74.26,0.77,0.77,0,0,1,.28.58,0.52,0.52,0,0,1-.3.39,3.26,3.26,0,0,1-1,.21q-7.8,0-15.61,0a6.35,6.35,0,0,1-.89-0.07,1.05,1.05,0,0,1-1-.94,12.5,12.5,0,0,1-.11-1.79q0-7.8,0-15.61h0Z" transform="translate(-206.44 -86.45)"/><path class="cls-1" d="M310.15,517.87q0-7.8,0-15.59c0-.48-0.1-1-0.06-1.43a1.79,1.79,0,0,1,.37-0.78,0.49,0.49,0,0,1,.77.07,3,3,0,0,1,.26,1q0,14.79,0,29.57c0,0.9,0,1.79,0,2.69a1.27,1.27,0,0,0,1.42,1.46c0.24,0,.48,0,0.72,0,4.54,0,9.08,0,13.62,0a6.87,6.87,0,0,1,1.58.18,0.55,0.55,0,0,1,.38.71,0.86,0.86,0,0,1-.48.47,2.76,2.76,0,0,1-.88.08H312.22a3.83,3.83,0,0,1-1.06-.12,1.32,1.32,0,0,1-1-1.15,8.57,8.57,0,0,1,0-1.07q0-8.07,0-16.13h0Z" transform="translate(-206.44 -86.45)"/><path class="cls-1" d="M521.94,190.14a2.6,2.6,0,0,1,2.64,2.42,2,2,0,0,1-.37,1,3.84,3.84,0,0,1-1.86,1.34c-2.45,1-4.89,1.93-7.34,2.9-0.5.2-1,.44-1.5,0.6a4.05,4.05,0,0,1-1.22.23,1.91,1.91,0,0,1-2-1.25,2.18,2.18,0,0,1,.36-2.51,5,5,0,0,1,1.45-1c2.88-1.18,5.77-2.3,8.67-3.43A6.91,6.91,0,0,1,521.94,190.14Z" transform="translate(-206.44 -86.45)"/><path class="cls-1" d="M275.79,195.55a2.34,2.34,0,0,1-2.63,2.29,4.89,4.89,0,0,1-1-.34c-1.17-.46-2.33-0.92-3.49-1.4-1.82-.75-3.64-1.5-5.45-2.28a3.59,3.59,0,0,1-.87-0.62,2.25,2.25,0,0,1,1.48-3.89,5.05,5.05,0,0,1,1.74.33c2.88,1.16,5.75,2.36,8.61,3.56A2.37,2.37,0,0,1,275.79,195.55Z" transform="translate(-206.44 -86.45)"/><path class="cls-1" d="M346.37,124.91a8.19,8.19,0,0,1-.82,1.56,2,2,0,0,1-3.23-.14,11.73,11.73,0,0,1-1.08-2.06c-0.92-2.14-1.81-4.3-2.69-6.45a12.22,12.22,0,0,1-.68-2,2.24,2.24,0,0,1,2.89-2.7,2,2,0,0,1,1.29,1.15c0.56,1.19,1.13,2.38,1.64,3.59,0.74,1.76,1.45,3.54,2.14,5.32C346.05,123.7,346.18,124.28,346.37,124.91Z" transform="translate(-206.44 -86.45)"/><path class="cls-1" d="M272.82,289.52c2.11,0,3.08,1.52,2.42,3.25a1.89,1.89,0,0,1-1.15,1.05l-3.8,1.57c-1.6.66-3.19,1.32-4.79,2a11.75,11.75,0,0,1-1.35.45,2.56,2.56,0,0,1-2.2-.48,2,2,0,0,1-.19-3.2,4.83,4.83,0,0,1,1.37-.82q4.29-1.77,8.6-3.47A8.54,8.54,0,0,1,272.82,289.52Z" transform="translate(-206.44 -86.45)"/><path class="cls-1" d="M447.29,115.6a5.45,5.45,0,0,1-.24,1c-1.25,3-2.5,6.08-3.79,9.11A2.18,2.18,0,0,1,440.8,127a2.22,2.22,0,0,1-1.84-2.32,5.42,5.42,0,0,1,.41-1.72c1-2.5,2-5,3.06-7.46a9.35,9.35,0,0,1,.7-1.45,2.36,2.36,0,0,1,2.75-1.16C446.79,113.2,447.33,114.12,447.29,115.6Z" transform="translate(-206.44 -86.45)"/><path class="cls-1" d="M521.27,298.68c-0.3-.09-1-0.24-1.65-0.5q-3.49-1.36-7-2.78a13.39,13.39,0,0,1-2-1.08,1.84,1.84,0,0,1-.75-2.34,2,2,0,0,1,2-1.66,3.65,3.65,0,0,1,1.21.25c3,1.18,6,2.37,8.94,3.6a4.32,4.32,0,0,1,1.3.91,1.87,1.87,0,0,1,.47,2.28A2.33,2.33,0,0,1,521.27,298.68Z" transform="translate(-206.44 -86.45)"/><path class="cls-1" d="M257.9,517.85q0-8,0-15.94a8.14,8.14,0,0,1,.21-1.58,0.5,0.5,0,0,1,.36-0.32,0.78,0.78,0,0,1,.55.33,5,5,0,0,1,.24,1.39c0,1.43,0,2.87,0,4.3q0,13.7,0,27.41c0,0.42,0,.84,0,1.25a1.53,1.53,0,0,1-.16.69,0.8,0.8,0,0,1-.53.38,0.76,0.76,0,0,1-.52-0.37,1.56,1.56,0,0,1-.13-0.69c0-.48,0-1,0-1.43q0-7.7,0-15.4h0Z" transform="translate(-206.44 -86.45)"/><path class="cls-1" d="M466.35,517.89q0-8,0-15.93a3.55,3.55,0,0,1,.07-1.06,1,1,0,0,1,.55-0.59,0.51,0.51,0,0,1,.61.5,8.11,8.11,0,0,1,.12,1.42c0,1.43,0,2.86,0,4.3q0,13.6,0,27.21a7.26,7.26,0,0,1-.18,1.58,0.66,0.66,0,0,1-.54.33,0.67,0.67,0,0,1-.49-0.41,8.73,8.73,0,0,1-.13-1.6q0-7.88,0-15.75h0Z" transform="translate(-206.44 -86.45)"/><path class="cls-1" d="M392.78,184a49.75,49.75,0,0,1,10.53.9,65.42,65.42,0,0,1,10.9,2.93,56.25,56.25,0,0,1,13.31,7,59.45,59.45,0,0,1,8.4,7,56.31,56.31,0,0,1,6.92,8.21,63.82,63.82,0,0,1,7.48,14.64,60.42,60.42,0,0,1,2.1,7.4,37.84,37.84,0,0,1,1.07,7.44c0,1.73.16,3.46,0.23,5.19a2.62,2.62,0,0,1-.47,1.69,1.78,1.78,0,0,1-2.66.46,2.76,2.76,0,0,1-1.18-2.3c-0.05-1.43-.2-2.86-0.23-4.29a41.65,41.65,0,0,0-1.38-8.66,56,56,0,0,0-7.51-17.35,60.17,60.17,0,0,0-7.89-9.48,50,50,0,0,0-8.59-7,51.67,51.67,0,0,0-10.48-5.45c-1.29-.47-2.57-1-3.88-1.39a55.51,55.51,0,0,0-10.51-2.18,53.25,53.25,0,0,0-13.59.17,56.62,56.62,0,0,0-9.1,2,59.9,59.9,0,0,0-10.85,4.65,58.5,58.5,0,0,0-10.06,7.16,64.75,64.75,0,0,0-5.65,5.75A49,49,0,0,0,341,222.07c-0.73,1.7-1.45,3.41-2.06,5.16a51.59,51.59,0,0,0-2.62,13.15c-0.11,1.43-.18,2.86-0.24,4.29a2.63,2.63,0,0,1-1.16,2.12,1.7,1.7,0,0,1-2.53-.33,4,4,0,0,1-.56-1.29,3.89,3.89,0,0,1,0-1.07,62.51,62.51,0,0,1,.69-8.57,58.34,58.34,0,0,1,1.54-7.17,61.37,61.37,0,0,1,3.72-9.89,64.58,64.58,0,0,1,4.86-8.36,52.3,52.3,0,0,1,5.57-6.78,67.6,67.6,0,0,1,6.3-5.85,59.13,59.13,0,0,1,11.43-7.36,63,63,0,0,1,21.67-5.93C389.31,184,391.05,184,392.78,184Z" transform="translate(-206.44 -86.45)"/></svg>